<?xml version="1.0" encoding="iso-8859-1"?>
<!-- Generator: Adobe Illustrator 24.1.2, SVG Export Plug-In . SVG Version: 6.00 Build 0)  -->
<svg version="1.1" id="Laag1" xmlns="http://www.w3.org/2000/svg" xmlns:xlink="http://www.w3.org/1999/xlink" x="0px" y="0px"
	 viewBox="0 0 335.606 595.276" style="enable-background:new 0 0 335.606 595.276;" xml:space="preserve">
<radialGradient id="plateau1.2_1_" cx="106.7042" cy="280.4161" r="56.0693" gradientTransform="matrix(1 0 0 -1 0 595.2756)" gradientUnits="userSpaceOnUse">
	<stop  offset="0.1415" style="stop-color:#7E0E0B"/>
	<stop  offset="1" style="stop-color:#A72726"/>
</radialGradient>
<polygon id="plateau1.2" style="fill:url(#plateau1.2_1_);" points="183.897,299.376 184.472,327.494 28.937,330.343 
	28.937,301.625 "/>
<radialGradient id="plateau1.1_1_" cx="106.9947" cy="274.2411" r="38.2428" gradientTransform="matrix(1 0 0 -1 0 595.2756)" gradientUnits="userSpaceOnUse">
	<stop  offset="0.1415" style="stop-color:#7E0E0B"/>
	<stop  offset="1" style="stop-color:#A72726"/>
</radialGradient>
<polygon id="plateau1.1" style="fill:url(#plateau1.1_1_);" points="21.179,310.195 22.124,336.048 188.696,332.27 192.811,327.991 
	192.318,306.021 "/>
<linearGradient id="ladderlinks_1_" gradientUnits="userSpaceOnUse" x1="63.0997" y1="222.0631" x2="153.0297" y2="222.0631" gradientTransform="matrix(1 0 0 -1 0 595.2756)">
	<stop  offset="0" style="stop-color:#A72726"/>
	<stop  offset="0.4567" style="stop-color:#A52626"/>
	<stop  offset="0.7006" style="stop-color:#9D2325"/>
	<stop  offset="0.8937" style="stop-color:#8F1F23"/>
	<stop  offset="1" style="stop-color:#841B21"/>
</linearGradient>
<polygon id="ladderlinks" style="fill:url(#ladderlinks_1_);" points="63.1,532.007 90.964,532.007 153.03,214.418 124.956,214.418 
	"/>
<circle id="schroeflinks2" style="fill:#7E0E0A;" cx="94.422" cy="439.241" r="2.182"/>
<circle id="schroeflinks1" style="fill:#7E0E0A;" cx="85.892" cy="484.268" r="2.182"/>
<path id="gleuvenplateau" style="fill:#680909;" d="M46.846,304.2l7.965-8.24c16.556-0.337,33.113-0.673,49.669-1.01
	c-0.842,2.6-1.684,5.201-2.526,7.801c-1.714,1.85-3.427,3.699-5.141,5.549c-16.649,0.413-33.299,0.827-49.948,1.24L46.846,304.2z"/>
<g id="plateau2">
	<polygon style="fill:#7E0E0A;" points="46.865,309.54 21.178,310.19 21.178,304.82 46.846,304.2 	"/>
	<path style="fill:#A72726;" d="M55.22,295.952c-2.791,2.749-5.582,5.499-8.374,8.248c-8.567,0.207-17.135,0.413-25.702,0.62
		l12.946-8.86C41.133,295.957,48.177,295.954,55.22,295.952z"/>
	<polygon style="fill:#7E0E0A;" points="74.463,303.56 74.463,308.85 48.227,309.54 48.208,304.2 	"/>
	<path style="fill:#A72726;" d="M80.699,295.434c-2.072,2.695-4.144,5.391-6.216,8.086v0.04l-26.275,0.64
		c2.813-2.747,5.625-5.493,8.438-8.24C64.664,295.784,72.681,295.609,80.699,295.434z"/>
	<polygon style="fill:#7E0E0A;" points="96.86,303.07 96.813,308.3 75.943,308.85 75.943,303.56 96.188,303.07 	"/>
	<path style="fill:#7E0E0A;" d="M104.48,294.95V300c-2.556,2.767-5.111,5.533-7.667,8.3c0.016-1.743,0.031-3.487,0.047-5.23
		C99.4,300.363,101.94,297.657,104.48,294.95z"/>
	<path style="fill:#A72726;" d="M104.48,294.95c-2.54,2.707-5.08,5.413-7.62,8.12h-0.672l-20.245,0.49v-0.04
		c2.125-2.706,4.25-5.413,6.375-8.119C89.705,295.25,97.093,295.1,104.48,294.95z"/>
</g>
<path style="fill:none;stroke:#1D1D1B;stroke-miterlimit:10;" d="M21.957,309.273"/>
<g id="ladderrechts_1_">
	
		<linearGradient id="ladderrechts_2_" gradientUnits="userSpaceOnUse" x1="153.0297" y1="223.8516" x2="323.3207" y2="223.8516" gradientTransform="matrix(1 0 0 -1 0 595.2756)">
		<stop  offset="0" style="stop-color:#841B21"/>
		<stop  offset="0.1063" style="stop-color:#8F1F23"/>
		<stop  offset="0.2994" style="stop-color:#9D2325"/>
		<stop  offset="0.5434" style="stop-color:#A52626"/>
		<stop  offset="1" style="stop-color:#A72726"/>
	</linearGradient>
	<polygon id="ladderrechts" style="fill:url(#ladderrechts_2_);" points="295.877,528.43 323.321,528.43 184.281,214.418 
		153.03,214.418 	"/>
	
		<linearGradient id="ladderrechts1.2_1_" gradientUnits="userSpaceOnUse" x1="151.4847" y1="242.8016" x2="278.6357" y2="242.8016" gradientTransform="matrix(1 0 0 -1 0 595.2756)">
		<stop  offset="0" style="stop-color:#841B21"/>
		<stop  offset="0.2342" style="stop-color:#8D1E22"/>
		<stop  offset="1" style="stop-color:#A72726"/>
	</linearGradient>
	<polygon id="ladderrechts1.2" style="fill:url(#ladderrechts1.2_1_);" points="151.485,222.323 272.844,490.53 278.636,490.53 
		153.03,214.418 	"/>
	<path id="trede3" style="fill:#AA2D2D;" d="M185.269,285.288c-0.392,4.696-0.785,9.392-1.177,14.088h7.038
		c-0.771-2.336-1.542-4.672-2.313-7.008C187.634,290.008,186.452,287.648,185.269,285.288z"/>
	<polygon id="trede2" style="fill:#AA2D2D;" points="220.499,369.428 220.499,377.59 232.09,400.462 232.752,389.665 
		223.545,369.428 	"/>
	<polygon id="trede1" style="fill:#AA2D2D;" points="254.745,446.632 254.745,455.631 272.396,489.54 273.462,479.157 
		258.524,446.319 	"/>
</g>
<circle id="schroefrechts2.1" style="fill:#7E0E0A;" cx="242.185" cy="392.502" r="2.182"/>
<circle id="schroefrechts2.2" style="fill:#7E0E0A;" cx="256.309" cy="391.847" r="2.182"/>
<circle id="schroefrechts1.1" style="fill:#7E0E0A;" cx="282.206" cy="482.725" r="2.182"/>
<circle id="schroefrechts1.2" style="fill:#7E0E0A;" cx="296.331" cy="482.07" r="2.182"/>
<circle style="fill:#7E0E0A;" cx="201.317" cy="301.558" r="2.182"/>
<circle style="fill:#7E0E0A;" cx="215.442" cy="300.903" r="2.182"/>
<g>
	<g id="bovenkant">
		
			<linearGradient id="SVGID_1_" gradientUnits="userSpaceOnUse" x1="152.8707" y1="380.8576" x2="152.8707" y2="392.9166" gradientTransform="matrix(1 0 0 -1 0 595.2756)">
			<stop  offset="0" style="stop-color:#7E0E0A"/>
			<stop  offset="0.8587" style="stop-color:#7E0E0A"/>
			<stop  offset="1" style="stop-color:#7E0E0A"/>
		</linearGradient>
		<rect x="119.622" y="202.359" style="fill:url(#SVGID_1_);" width="66.498" height="12.059"/>
	</g>
	<path style="fill:#A72726;" d="M183.379,193.25c0.914,3.036,1.828,6.073,2.742,9.109c-22.166,0-44.332,0-66.498,0
		c1.372-3.036,2.743-6.073,4.115-9.109C143.617,193.25,163.498,193.25,183.379,193.25z"/>
	<rect x="152.462" y="193.25" style="fill:#680909;" width="1.288" height="21.169"/>
</g>
<g id="bovenlichaam">
	<g id="trui">
		
			<linearGradient id="Jas_2_" gradientUnits="userSpaceOnUse" x1="102.8396" y1="463.3204" x2="102.8396" y2="297.9626" gradientTransform="matrix(1 0 0 -1 0 595.2756)">
			<stop  offset="0" style="stop-color:#841B21"/>
			<stop  offset="0.0472" style="stop-color:#881C22"/>
			<stop  offset="0.333" style="stop-color:#992224"/>
			<stop  offset="0.6395" style="stop-color:#A42626"/>
			<stop  offset="1" style="stop-color:#A72726"/>
		</linearGradient>
		<path id="Jas_1_" style="fill:url(#Jas_2_);" d="M167.041,166.583c0,0-2.77,13.7-8.67,16.31h-3.3l0.31,6.03c0,0-8.15-3.63-13.33,0
			l1.25,8.39c-2.76,0.4-5.05,5.69-5.05,5.69l-16.22,1.15c0,0-2.84,8.1-2.84,8.53c0,0.44-5.05,13.59-5.05,13.59
			s-1.31,13.33-2.53,14.28c-1.22,0.96-4.79,40.94-4.79,40.94l-5.4,8.97c0.68,1.18-0.57,5.69-0.65,5.96
			c-0.88-0.5-1.53-0.77-1.53-0.77c-1.05-0.31-2.38-0.59-3.92-0.63c-3.91-0.09-6.89,1.42-8.32,2.29v-4.55c0,0-7.87-1.32-7.62-6.59
			c0,0-2.89-16.24-0.99-20.77c0,0-0.02-13.54,1.6-17.23c0,0-6.69,3.92-7.84-1.15c-1.16-5.08-25.65-3.48-29.17-21.36
			c0,0-2.87-6.53-3.89-8.23s0-18.34,0-18.34s8.15-30.39,16.81-36.16c0,0,11.57-16.84,25.72-27.13c1.25-0.86,2.51-1.72,3.76-2.58
			l9.48-1.17c0,0,38.99-1.81,53.9,10.14c0.01,0.01,0.03,0.02,0.04,0.03l12.88,11.68
			C161.681,153.903,167.131,160.713,167.041,166.583z"/>
		<path style="fill:none;stroke:#8E1927;stroke-miterlimit:10;" d="M86.264,141.728c1.697,4.412,14,16.715,14,16.715l20.857,4.15
			l6.06,2.09l5.28,4.74c1,6.83,8.71,13.48,8.71,13.48c-0.22,4.22,0.88,6.02,0.88,6.02"/>
		<path style="fill:none;stroke:#8E1927;stroke-miterlimit:10;" d="M78.466,261.058c0,0,16.246,2.499,21.118-3.123"/>
	</g>
	<g id="linkerhand_2_">
		<g id="linkerhand_3_">
			<path style="fill:#D79B82;" d="M138.812,209.402c1.305,1.938,2.94,4.072,3.73,3.746c0.168-0.069,0.356-0.274,0.473-1.225
				c0.126-1.027,0.175-2.97-0.95-5.493l0.227-2.877l3.273,5.753c-0.052,6.186,0.545,9.416,1.792,9.69
				c0.589,0.13,1.323-0.4,2.202-1.59v-8.403c0.12,6.34,0.857,9.648,2.21,9.923c0.604,0.123,1.331-0.359,2.18-1.444l-0.606-8.751
				c-0.226,3.985-0.181,9.177,1.577,9.705c0.488,0.147,1.132-0.059,1.541-0.42c0.87-0.77,0.916-2.465,0.073-4.316
				c-0.105-1.792-0.21-3.585-0.315-5.377c0.215,7.376,1.054,9.091,1.813,9.212c0.399,0.064,0.9-0.292,1.16-0.569
				c0.496-0.531,0.58-1.283,0.42-3.082c-0.087-0.976-0.246-2.267-0.56-3.782c-0.137-2.511-0.274-5.022-0.41-7.532
				c-0.292-0.9-0.884-2.331-2.106-3.747c-0.945-1.096-1.938-1.801-2.664-2.233c0.502-2.555,1.005-5.111,1.507-7.666
				c-0.621-0.462-4.766-3.442-9.565-2.074c-1.703,0.485-2.955,1.366-3.765,2.074c0.417,2.797,0.833,5.593,1.25,8.39
				c-0.802,0.301-2.921,1.221-4.304,3.485C136.59,204.737,138.652,209.079,138.812,209.402z"/>
			
				<linearGradient id="SVGID_2_" gradientUnits="userSpaceOnUse" x1="137.6207" y1="390.6591" x2="142.4207" y2="390.6591" gradientTransform="matrix(1 0 0 -1 0 595.2756)">
				<stop  offset="0" style="stop-color:#E4CD78"/>
				<stop  offset="0.377" style="stop-color:#E5CA76"/>
				<stop  offset="0.633" style="stop-color:#EAC16E"/>
				<stop  offset="0.8525" style="stop-color:#F1B262"/>
				<stop  offset="1" style="stop-color:#F9A355"/>
			</linearGradient>
			<polygon style="fill:url(#SVGID_2_);" points="142.371,205.209 137.621,204.952 137.671,204.024 142.421,204.281 			"/>
			
				<linearGradient id="SVGID_3_" gradientUnits="userSpaceOnUse" x1="145.5377" y1="380.3521" x2="149.7947" y2="380.3521" gradientTransform="matrix(1 0 0 -1 0 595.2756)">
				<stop  offset="0" style="stop-color:#E4CD78"/>
				<stop  offset="0.377" style="stop-color:#E5CA76"/>
				<stop  offset="0.633" style="stop-color:#EAC16E"/>
				<stop  offset="0.8525" style="stop-color:#F1B262"/>
				<stop  offset="1" style="stop-color:#F9A355"/>
			</linearGradient>
			<polygon style="fill:url(#SVGID_3_);" points="149.745,215.501 145.538,215.274 145.588,214.346 149.795,214.573 			"/>
		</g>
		<g id="horloge_1_">
			<path style="fill:#BAB8B6;" d="M142.664,192.652c0,0,9.276-2.08,12.607,0.078c0,0-0.373,2.628,0.233,3.233
				s-12.279,0.457-12.279,0.457L142.664,192.652z"/>
			<circle style="fill:#FFFFFF;" cx="150.97" cy="194.093" r="3.288"/>
		</g>
	</g>
	<g>
		<path style="fill:#D79B82;" d="M103.581,305.893c-0.8,0.79-2.49,2.51-3.3,2.05c-0.65-0.37-0.57-2.07,0.12-4.07
			c0.26-1.61-0.88-2.93-2.01-3c-1.17-0.07-2.5,1.19-2.34,2.88c1.42,8.03,1.15,9.94,0.61,10.11c-0.57,0.17-1.92-1.36-5.49-9.68
			c1.03,2.97,2.06,5.94,3.09,8.91c-0.01,1.24-0.18,1.91-0.51,2c-0.65,0.18-1.93-1.83-3.84-6.04c-0.28-0.84-0.66-1.73-1.17-2.68
			c0.41,0.98,0.81,1.87,1.17,2.68c0.59,1.7,0.78,3.14,0.84,4.13c0.07,1.1,0.11,1.87-0.22,2.02c-0.88,0.39-3.56-3.7-5.68-7.21
			c-0.15-0.15-2.59-2.8-1.66-6.3c0.8-3.02,3.47-4.23,3.81-4.38c1.43-0.87,4.41-2.38,8.32-2.29c1.54,0.04,2.87,0.32,3.92,0.63
			c0,0,0.65,0.27,1.53,0.77C103.391,297.923,108.071,301.473,103.581,305.893z"/>
		
			<rect x="85.714" y="308.735" transform="matrix(0.9199 -0.3922 0.3922 0.9199 -114.2736 59.2237)" style="fill:#D8B548;" width="4.213" height="1.151"/>
		<circle style="fill:#D8B548;" cx="87.819" cy="309.295" r="0.876"/>
	</g>
</g>
<g id="kettingen">
	
		<linearGradient id="SVGID_4_" gradientUnits="userSpaceOnUse" x1="71.0248" y1="393.6274" x2="90.3474" y2="393.6274" gradientTransform="matrix(1 0 0 -1 0 595.2756)">
		<stop  offset="0" style="stop-color:#E4CD78"/>
		<stop  offset="1" style="stop-color:#E59853"/>
	</linearGradient>
	<path style="fill:none;stroke:url(#SVGID_4_);stroke-miterlimit:10;" d="M71.124,231.463c2.859,0.577,4.895,0.228,6.214-0.187
		c11.915-3.742,14.308-28.139,11.373-44.95c-1.163-6.663-3.123-11.903-4.489-15.1"/>
	
		<linearGradient id="SVGID_5_" gradientUnits="userSpaceOnUse" x1="80.9574" y1="354.8347" x2="80.9574" y2="422.1176" gradientTransform="matrix(1 0 0 -1 0 595.2756)">
		<stop  offset="0" style="stop-color:#E4CD78"/>
		<stop  offset="1" style="stop-color:#E59853"/>
	</linearGradient>
	<path style="fill:none;stroke:url(#SVGID_5_);stroke-miterlimit:10;" d="M70.155,233.945c3.86,5.245,6.614,6.179,8.465,5.969
		c9.065-1.025,17.77-29.875,10.091-53.588c-1.969-6.079-4.608-10.564-6.106-12.898"/>
	<g>
		
			<linearGradient id="SVGID_6_" gradientUnits="userSpaceOnUse" x1="79.6977" y1="412.3026" x2="79.6977" y2="412.3026" gradientTransform="matrix(1 0 0 -1 0 595.2756)">
			<stop  offset="0" style="stop-color:#E4CD78"/>
			<stop  offset="1" style="stop-color:#E29B47"/>
		</linearGradient>
		<path style="fill:none;stroke:url(#SVGID_6_);stroke-miterlimit:10;" d="M79.698,182.973"/>
		
			<linearGradient id="SVGID_7_" gradientUnits="userSpaceOnUse" x1="80.3347" y1="410.8826" x2="80.3347" y2="410.8826" gradientTransform="matrix(1 0 0 -1 0 595.2756)">
			<stop  offset="0" style="stop-color:#E4CD78"/>
			<stop  offset="1" style="stop-color:#E29B47"/>
		</linearGradient>
		<path style="fill:none;stroke:url(#SVGID_7_);stroke-miterlimit:10;" d="M80.335,184.393"/>
		
			<linearGradient id="SVGID_8_" gradientUnits="userSpaceOnUse" x1="77.2306" y1="312.2152" x2="83.8932" y2="312.2152" gradientTransform="matrix(1 0 0 -1 0 595.2756)">
			<stop  offset="0" style="stop-color:#E4CD78"/>
			<stop  offset="1" style="stop-color:#E29B47"/>
		</linearGradient>
		<path style="fill:none;stroke:url(#SVGID_8_);stroke-miterlimit:10;" d="M83.299,281.519c0.505,0.752-1.082,3.171-3.126,3.392
			c-0.956,0.103-2.229-0.251-2.418-0.946c-0.145-0.533,0.399-1.088,0.733-1.429c0.795-0.812,1.804-1.044,2.243-1.139
			C81.156,281.304,82.9,280.925,83.299,281.519z"/>
		
			<linearGradient id="SVGID_9_" gradientUnits="userSpaceOnUse" x1="81.6855" y1="315.4078" x2="88.1171" y2="315.4078" gradientTransform="matrix(1 0 0 -1 0 595.2756)">
			<stop  offset="0" style="stop-color:#E4CD78"/>
			<stop  offset="1" style="stop-color:#E29B47"/>
		</linearGradient>
		<path style="fill:none;stroke:url(#SVGID_9_);stroke-miterlimit:10;" d="M87.474,278.12c0.591,0.698-0.708,3.253-2.719,3.67
			c-0.94,0.195-2.25-0.033-2.519-0.704c-0.206-0.515,0.27-1.119,0.563-1.489c0.698-0.883,1.675-1.211,2.102-1.349
			C85.315,278.114,87.008,277.569,87.474,278.12z"/>
		
			<linearGradient id="SVGID_10_" gradientUnits="userSpaceOnUse" x1="85.0286" y1="318.6711" x2="90.2141" y2="318.6711" gradientTransform="matrix(1 0 0 -1 0 595.2756)">
			<stop  offset="0" style="stop-color:#E4CD78"/>
			<stop  offset="1" style="stop-color:#E29B47"/>
		</linearGradient>
		<path style="fill:none;stroke:url(#SVGID_10_);stroke-miterlimit:10;" d="M89.426,274.698c0.669,0.432,0.169,2.788-1.446,3.577
			c-0.755,0.368-1.926,0.478-2.315-0.004c-0.299-0.37-0.035-0.965,0.126-1.33c0.385-0.87,1.141-1.355,1.472-1.562
			C87.583,275.178,88.898,274.357,89.426,274.698z"/>
		
			<linearGradient id="SVGID_11_" gradientUnits="userSpaceOnUse" x1="87.4126" y1="322.5637" x2="91.5631" y2="322.5637" gradientTransform="matrix(1 0 0 -1 0 595.2756)">
			<stop  offset="0" style="stop-color:#E4CD78"/>
			<stop  offset="1" style="stop-color:#E29B47"/>
		</linearGradient>
		<path style="fill:none;stroke:url(#SVGID_11_);stroke-miterlimit:10;" d="M90.008,270.314c0.819,0.089,1.591,2.364,0.56,3.747
			c-0.482,0.647-1.468,1.246-2.063,0.992c-0.457-0.195-0.53-0.828-0.575-1.217c-0.107-0.926,0.316-1.675,0.504-1.998
			C88.615,271.526,89.362,270.243,90.008,270.314z"/>
		
			<linearGradient id="SVGID_12_" gradientUnits="userSpaceOnUse" x1="87.7173" y1="326.1637" x2="91.2665" y2="326.1637" gradientTransform="matrix(1 0 0 -1 0 595.2756)">
			<stop  offset="0" style="stop-color:#E4CD78"/>
			<stop  offset="1" style="stop-color:#E29B47"/>
		</linearGradient>
		<path style="fill:none;stroke:url(#SVGID_12_);stroke-miterlimit:10;" d="M89.133,266.824c0.695-0.176,1.985,1.562,1.544,3.085
			c-0.206,0.712-0.837,1.539-1.397,1.502c-0.43-0.028-0.673-0.556-0.822-0.88c-0.356-0.772-0.228-1.554-0.168-1.893
			C88.347,268.31,88.585,266.963,89.133,266.824z"/>
		
			<linearGradient id="SVGID_13_" gradientUnits="userSpaceOnUse" x1="88.2243" y1="330.8247" x2="91.7735" y2="330.8247" gradientTransform="matrix(1 0 0 -1 0 595.2756)">
			<stop  offset="0" style="stop-color:#E4CD78"/>
			<stop  offset="1" style="stop-color:#E29B47"/>
		</linearGradient>
		<path style="fill:none;stroke:url(#SVGID_13_);stroke-miterlimit:10;" d="M89.64,262.163c0.695-0.176,1.985,1.562,1.544,3.085
			c-0.206,0.712-0.837,1.539-1.397,1.502c-0.43-0.028-0.673-0.556-0.822-0.88c-0.356-0.772-0.228-1.554-0.168-1.893
			C88.854,263.649,89.091,262.303,89.64,262.163z"/>
		
			<linearGradient id="SVGID_14_" gradientUnits="userSpaceOnUse" x1="88.1302" y1="335.5582" x2="91.6845" y2="335.5582" gradientTransform="matrix(1 0 0 -1 0 595.2756)">
			<stop  offset="0" style="stop-color:#E4CD78"/>
			<stop  offset="1" style="stop-color:#E29B47"/>
		</linearGradient>
		<path style="fill:none;stroke:url(#SVGID_14_);stroke-miterlimit:10;" d="M89.374,257.445c0.682-0.217,2.093,1.44,1.761,2.984
			c-0.156,0.722-0.728,1.583-1.29,1.58c-0.432-0.003-0.712-0.514-0.884-0.829c-0.41-0.749-0.337-1.536-0.302-1.877
			C88.694,258.972,88.836,257.616,89.374,257.445z"/>
		
			<linearGradient id="SVGID_15_" gradientUnits="userSpaceOnUse" x1="87.6039" y1="339.7471" x2="91.4203" y2="339.7471" gradientTransform="matrix(1 0 0 -1 0 595.2756)">
			<stop  offset="0" style="stop-color:#E4CD78"/>
			<stop  offset="1" style="stop-color:#E29B47"/>
		</linearGradient>
		<path style="fill:none;stroke:url(#SVGID_15_);stroke-miterlimit:10;" d="M88.869,253.242c0.745-0.206,2.338,1.483,2.007,3.027
			c-0.155,0.722-0.764,1.577-1.383,1.563c-0.475-0.01-0.795-0.529-0.992-0.848c-0.469-0.759-0.407-1.548-0.375-1.89
			C88.156,254.764,88.281,253.404,88.869,253.242z"/>
		
			<linearGradient id="SVGID_16_" gradientUnits="userSpaceOnUse" x1="87.3742" y1="344.5655" x2="91.1397" y2="344.5655" gradientTransform="matrix(1 0 0 -1 0 595.2756)">
			<stop  offset="0" style="stop-color:#E4CD78"/>
			<stop  offset="1" style="stop-color:#E29B47"/>
		</linearGradient>
		<path style="fill:none;stroke:url(#SVGID_16_);stroke-miterlimit:10;" d="M88.68,248.248c0.738-0.235,2.266,1.56,1.906,3.233
			c-0.169,0.782-0.788,1.716-1.397,1.712c-0.467-0.003-0.77-0.557-0.957-0.898c-0.444-0.811-0.365-1.664-0.326-2.034
			C87.944,249.903,88.098,248.434,88.68,248.248z"/>
		
			<linearGradient id="SVGID_17_" gradientUnits="userSpaceOnUse" x1="87.6035" y1="348.4963" x2="91.6412" y2="348.4963" gradientTransform="matrix(1 0 0 -1 0 595.2756)">
			<stop  offset="0" style="stop-color:#E4CD78"/>
			<stop  offset="1" style="stop-color:#E29B47"/>
		</linearGradient>
		<path style="fill:none;stroke:url(#SVGID_17_);stroke-miterlimit:10;" d="M88.932,244.302c0.804-0.223,2.519,1.604,2.161,3.278
			c-0.167,0.782-0.826,1.709-1.494,1.695c-0.512-0.011-0.857-0.572-1.069-0.917c-0.504-0.822-0.437-1.676-0.403-2.047
			C88.161,245.951,88.298,244.478,88.932,244.302z"/>
		
			<linearGradient id="SVGID_18_" gradientUnits="userSpaceOnUse" x1="88.442" y1="352.6779" x2="93.0241" y2="352.6779" gradientTransform="matrix(1 0 0 -1 0 595.2756)">
			<stop  offset="0" style="stop-color:#E4CD78"/>
			<stop  offset="1" style="stop-color:#E29B47"/>
		</linearGradient>
		<path style="fill:none;stroke:url(#SVGID_18_);stroke-miterlimit:10;" d="M89.991,240.055c0.957-0.142,2.933,1.879,2.462,3.53
			c-0.22,0.772-1.025,1.639-1.813,1.557c-0.605-0.064-0.997-0.666-1.238-1.036c-0.573-0.881-0.469-1.737-0.418-2.108
			C89.034,241.64,89.237,240.168,89.991,240.055z"/>
		
			<linearGradient id="SVGID_19_" gradientUnits="userSpaceOnUse" x1="88.6576" y1="357.8017" x2="93.2822" y2="357.8017" gradientTransform="matrix(1 0 0 -1 0 595.2756)">
			<stop  offset="0" style="stop-color:#E4CD78"/>
			<stop  offset="1" style="stop-color:#E29B47"/>
		</linearGradient>
		<path style="fill:none;stroke:url(#SVGID_19_);stroke-miterlimit:10;" d="M90.291,234.691c0.975-0.177,2.927,2.001,2.404,3.824
			c-0.244,0.852-1.085,1.822-1.883,1.748c-0.613-0.057-0.994-0.71-1.228-1.111c-0.558-0.956-0.43-1.897-0.368-2.306
			C89.275,236.451,89.521,234.83,90.291,234.691z"/>
		
			<linearGradient id="SVGID_20_" gradientUnits="userSpaceOnUse" x1="87.7856" y1="362.7296" x2="92.4102" y2="362.7296" gradientTransform="matrix(1 0 0 -1 0 595.2756)">
			<stop  offset="0" style="stop-color:#E4CD78"/>
			<stop  offset="1" style="stop-color:#E29B47"/>
		</linearGradient>
		<path style="fill:none;stroke:url(#SVGID_20_);stroke-miterlimit:10;" d="M89.419,229.763c0.975-0.177,2.927,2.001,2.404,3.824
			c-0.244,0.852-1.085,1.822-1.883,1.748c-0.613-0.057-0.994-0.71-1.228-1.111c-0.558-0.956-0.43-1.897-0.368-2.306
			C88.404,231.523,88.649,229.902,89.419,229.763z"/>
		
			<linearGradient id="SVGID_21_" gradientUnits="userSpaceOnUse" x1="87.3276" y1="367.5887" x2="91.9522" y2="367.5887" gradientTransform="matrix(1 0 0 -1 0 595.2756)">
			<stop  offset="0" style="stop-color:#E4CD78"/>
			<stop  offset="1" style="stop-color:#E29B47"/>
		</linearGradient>
		<path style="fill:none;stroke:url(#SVGID_21_);stroke-miterlimit:10;" d="M88.961,224.904c0.975-0.177,2.927,2.001,2.404,3.824
			c-0.244,0.852-1.085,1.822-1.883,1.748c-0.613-0.057-0.994-0.71-1.228-1.111c-0.558-0.956-0.43-1.897-0.368-2.306
			C87.946,226.664,88.191,225.043,88.961,224.904z"/>
		
			<linearGradient id="SVGID_22_" gradientUnits="userSpaceOnUse" x1="88.1397" y1="372.0141" x2="91.7063" y2="372.0141" gradientTransform="matrix(1 0 0 -1 0 595.2756)">
			<stop  offset="0" style="stop-color:#E4CD78"/>
			<stop  offset="1" style="stop-color:#E29B47"/>
		</linearGradient>
		<path style="fill:none;stroke:url(#SVGID_22_);stroke-miterlimit:10;" d="M89.763,220.967c0.706-0.131,1.854,1.69,1.295,3.182
			c-0.261,0.697-0.955,1.482-1.51,1.409c-0.426-0.056-0.627-0.599-0.75-0.933c-0.293-0.794-0.105-1.567-0.018-1.902
			C88.863,222.399,89.206,221.07,89.763,220.967z"/>
		
			<linearGradient id="SVGID_23_" gradientUnits="userSpaceOnUse" x1="88.2605" y1="376.2254" x2="92.0554" y2="376.2254" gradientTransform="matrix(1 0 0 -1 0 595.2756)">
			<stop  offset="0" style="stop-color:#E4CD78"/>
			<stop  offset="1" style="stop-color:#E29B47"/>
		</linearGradient>
		<path style="fill:none;stroke:url(#SVGID_23_);stroke-miterlimit:10;" d="M89.89,216.731c0.767-0.112,2.089,1.763,1.533,3.255
			c-0.26,0.698-0.991,1.471-1.6,1.381c-0.468-0.069-0.707-0.624-0.854-0.965c-0.35-0.812-0.171-1.588-0.089-1.924
			C88.958,218.153,89.284,216.819,89.89,216.731z"/>
		
			<linearGradient id="SVGID_24_" gradientUnits="userSpaceOnUse" x1="88.7305" y1="381.0417" x2="92.5104" y2="381.0417" gradientTransform="matrix(1 0 0 -1 0 595.2756)">
			<stop  offset="0" style="stop-color:#E4CD78"/>
			<stop  offset="1" style="stop-color:#E29B47"/>
		</linearGradient>
		<path style="fill:none;stroke:url(#SVGID_24_);stroke-miterlimit:10;" d="M90.448,211.748c0.764-0.142,2.007,1.83,1.402,3.447
			c-0.283,0.756-1.035,1.606-1.636,1.527c-0.461-0.061-0.678-0.649-0.812-1.01c-0.318-0.861-0.113-1.697-0.019-2.06
			C89.473,213.3,89.845,211.86,90.448,211.748z"/>
		
			<linearGradient id="SVGID_25_" gradientUnits="userSpaceOnUse" x1="89.1957" y1="384.9021" x2="92.7623" y2="384.9021" gradientTransform="matrix(1 0 0 -1 0 595.2756)">
			<stop  offset="0" style="stop-color:#E4CD78"/>
			<stop  offset="1" style="stop-color:#E29B47"/>
		</linearGradient>
		<path style="fill:none;stroke:url(#SVGID_25_);stroke-miterlimit:10;" d="M90.819,208.079c0.706-0.131,1.854,1.69,1.295,3.182
			c-0.261,0.697-0.955,1.482-1.51,1.409c-0.426-0.056-0.627-0.599-0.75-0.933c-0.293-0.794-0.105-1.567-0.018-1.902
			C89.92,209.512,90.262,208.182,90.819,208.079z"/>
		
			<linearGradient id="SVGID_26_" gradientUnits="userSpaceOnUse" x1="89.3162" y1="389.1134" x2="93.1115" y2="389.1134" gradientTransform="matrix(1 0 0 -1 0 595.2756)">
			<stop  offset="0" style="stop-color:#E4CD78"/>
			<stop  offset="1" style="stop-color:#E29B47"/>
		</linearGradient>
		<path style="fill:none;stroke:url(#SVGID_26_);stroke-miterlimit:10;" d="M90.946,203.843c0.767-0.112,2.089,1.763,1.533,3.255
			c-0.26,0.698-0.991,1.471-1.6,1.381c-0.468-0.069-0.707-0.624-0.854-0.965c-0.35-0.812-0.172-1.588-0.089-1.924
			C90.015,205.266,90.341,203.931,90.946,203.843z"/>
		
			<linearGradient id="SVGID_27_" gradientUnits="userSpaceOnUse" x1="89.7876" y1="393.9297" x2="93.5675" y2="393.9297" gradientTransform="matrix(1 0 0 -1 0 595.2756)">
			<stop  offset="0" style="stop-color:#E4CD78"/>
			<stop  offset="1" style="stop-color:#E29B47"/>
		</linearGradient>
		<path style="fill:none;stroke:url(#SVGID_27_);stroke-miterlimit:10;" d="M91.505,198.86c0.764-0.142,2.007,1.83,1.402,3.447
			c-0.283,0.756-1.035,1.606-1.636,1.527c-0.461-0.061-0.678-0.649-0.812-1.01c-0.318-0.86-0.113-1.697-0.019-2.06
			C90.53,200.412,90.901,198.972,91.505,198.86z"/>
		
			<linearGradient id="SVGID_28_" gradientUnits="userSpaceOnUse" x1="89.9883" y1="398.0501" x2="93.5382" y2="398.0501" gradientTransform="matrix(1 0 0 -1 0 595.2756)">
			<stop  offset="0" style="stop-color:#E4CD78"/>
			<stop  offset="1" style="stop-color:#E29B47"/>
		</linearGradient>
		<path style="fill:none;stroke:url(#SVGID_28_);stroke-miterlimit:10;" d="M91.411,194.937c0.695-0.175,1.981,1.566,1.536,3.088
			c-0.208,0.711-0.841,1.537-1.401,1.5c-0.43-0.029-0.672-0.557-0.82-0.882c-0.354-0.773-0.224-1.554-0.163-1.894
			C90.622,196.422,90.862,195.075,91.411,194.937z"/>
		
			<linearGradient id="SVGID_29_" gradientUnits="userSpaceOnUse" x1="89.7776" y1="402.2595" x2="93.5752" y2="402.2595" gradientTransform="matrix(1 0 0 -1 0 595.2756)">
			<stop  offset="0" style="stop-color:#E4CD78"/>
			<stop  offset="1" style="stop-color:#E29B47"/>
		</linearGradient>
		<path style="fill:none;stroke:url(#SVGID_29_);stroke-miterlimit:10;" d="M91.215,190.708c0.758-0.16,2.221,1.624,1.779,3.146
			c-0.207,0.712-0.877,1.529-1.493,1.478c-0.473-0.039-0.754-0.577-0.927-0.907c-0.411-0.787-0.292-1.571-0.236-1.911
			C90.393,192.185,90.617,190.835,91.215,190.708z"/>
		
			<linearGradient id="SVGID_30_" gradientUnits="userSpaceOnUse" x1="89.893" y1="407.0886" x2="93.6538" y2="407.0886" gradientTransform="matrix(1 0 0 -1 0 595.2756)">
			<stop  offset="0" style="stop-color:#E4CD78"/>
			<stop  offset="1" style="stop-color:#E29B47"/>
		</linearGradient>
		<path style="fill:none;stroke:url(#SVGID_30_);stroke-miterlimit:10;" d="M91.392,185.708c0.753-0.19,2.145,1.696,1.663,3.345
			c-0.225,0.771-0.911,1.666-1.517,1.625c-0.465-0.031-0.727-0.603-0.888-0.955c-0.383-0.837-0.242-1.684-0.176-2.052
			C90.537,187.317,90.798,185.858,91.392,185.708z"/>
		
			<linearGradient id="SVGID_31_" gradientUnits="userSpaceOnUse" x1="88.3221" y1="411.813" x2="92.4951" y2="411.813" gradientTransform="matrix(1 0 0 -1 0 595.2756)">
			<stop  offset="0" style="stop-color:#E4CD78"/>
			<stop  offset="1" style="stop-color:#E29B47"/>
		</linearGradient>
		<path style="fill:none;stroke:url(#SVGID_31_);stroke-miterlimit:10;" d="M89.091,181.215c0.631-0.424,2.685,0.863,2.887,2.549
			c0.094,0.788-0.195,1.843-0.78,2.006c-0.449,0.125-0.922-0.319-1.212-0.591c-0.691-0.649-0.895-1.48-0.979-1.842
			C88.926,182.987,88.592,181.55,89.091,181.215z"/>
		
			<linearGradient id="SVGID_32_" gradientUnits="userSpaceOnUse" x1="86.5009" y1="415.9393" x2="90.8397" y2="415.9393" gradientTransform="matrix(1 0 0 -1 0 595.2756)">
			<stop  offset="0" style="stop-color:#E4CD78"/>
			<stop  offset="1" style="stop-color:#E29B47"/>
		</linearGradient>
		<path style="fill:none;stroke:url(#SVGID_32_);stroke-miterlimit:10;" d="M87.215,177.168c0.599-0.462,2.747,0.691,3.076,2.358
			c0.154,0.779-0.055,1.849-0.627,2.048c-0.439,0.153-0.945-0.259-1.255-0.513c-0.739-0.603-1.006-1.418-1.117-1.773
			C87.184,178.943,86.743,177.532,87.215,177.168z"/>
		
			<linearGradient id="SVGID_33_" gradientUnits="userSpaceOnUse" x1="84.0788" y1="419.1763" x2="88.0229" y2="419.1763" gradientTransform="matrix(1 0 0 -1 0 595.2756)">
			<stop  offset="0" style="stop-color:#E4CD78"/>
			<stop  offset="1" style="stop-color:#E29B47"/>
		</linearGradient>
		<path style="fill:none;stroke:url(#SVGID_33_);stroke-miterlimit:10;" d="M84.768,174.188c0.528-0.408,2.422,0.609,2.712,2.079
			c0.136,0.687-0.049,1.63-0.553,1.805c-0.387,0.135-0.833-0.229-1.107-0.452c-0.652-0.532-0.887-1.25-0.985-1.564
			C84.741,175.754,84.351,174.51,84.768,174.188z"/>
		
			<linearGradient id="SVGID_34_" gradientUnits="userSpaceOnUse" x1="81.9419" y1="422.3883" x2="86.2807" y2="422.3883" gradientTransform="matrix(1 0 0 -1 0 595.2756)">
			<stop  offset="0" style="stop-color:#E4CD78"/>
			<stop  offset="1" style="stop-color:#E29B47"/>
		</linearGradient>
		<path style="fill:none;stroke:url(#SVGID_34_);stroke-miterlimit:10;" d="M82.656,170.719c0.599-0.462,2.747,0.691,3.076,2.358
			c0.154,0.779-0.055,1.849-0.627,2.048c-0.439,0.153-0.945-0.259-1.255-0.513c-0.739-0.603-1.006-1.418-1.117-1.773
			C82.625,172.495,82.184,171.084,82.656,170.719z"/>
		
			<linearGradient id="SVGID_35_" gradientUnits="userSpaceOnUse" x1="72.2791" y1="311.7546" x2="79.296" y2="311.7546" gradientTransform="matrix(1 0 0 -1 0 595.2756)">
			<stop  offset="0" style="stop-color:#E4CD78"/>
			<stop  offset="1" style="stop-color:#E29B47"/>
		</linearGradient>
		<path style="fill:none;stroke:url(#SVGID_35_);stroke-miterlimit:10;" d="M78.791,283.896c-0.138,0.882-3.028,1.862-4.74,0.852
			c-0.8-0.472-1.525-1.487-1.186-2.141c0.26-0.502,1.06-0.623,1.551-0.697c1.17-0.177,2.1,0.225,2.502,0.404
			C77.306,282.488,78.9,283.2,78.791,283.896z"/>
		
			<linearGradient id="SVGID_36_" gradientUnits="userSpaceOnUse" x1="68.7724" y1="314.2772" x2="74.1596" y2="314.2772" gradientTransform="matrix(1 0 0 -1 0 595.2756)">
			<stop  offset="0" style="stop-color:#E4CD78"/>
			<stop  offset="1" style="stop-color:#E29B47"/>
		</linearGradient>
		<path style="fill:none;stroke:url(#SVGID_36_);stroke-miterlimit:10;" d="M73.403,283.273c-0.758,0.57-3.571-0.498-4.049-2.314
			c-0.224-0.849,0.012-2.054,0.745-2.33c0.562-0.212,1.228,0.196,1.638,0.446c0.974,0.596,1.344,1.474,1.5,1.857
			C73.386,281.302,74.002,282.823,73.403,283.273z"/>
		
			<linearGradient id="SVGID_37_" gradientUnits="userSpaceOnUse" x1="66.0871" y1="318.2148" x2="70.9646" y2="318.2148" gradientTransform="matrix(1 0 0 -1 0 595.2756)">
			<stop  offset="0" style="stop-color:#E4CD78"/>
			<stop  offset="1" style="stop-color:#E29B47"/>
		</linearGradient>
		<path style="fill:none;stroke:url(#SVGID_37_);stroke-miterlimit:10;" d="M69.991,279.632c-0.871,0.413-3.36-1.181-3.403-3.055
			c-0.02-0.876,0.49-2.012,1.267-2.141c0.597-0.099,1.15,0.43,1.49,0.755c0.81,0.774,0.966,1.706,1.028,2.112
			C70.433,277.695,70.679,279.306,69.991,279.632z"/>
		
			<linearGradient id="SVGID_38_" gradientUnits="userSpaceOnUse" x1="65.0841" y1="322.2428" x2="69.962" y2="322.2428" gradientTransform="matrix(1 0 0 -1 0 595.2756)">
			<stop  offset="0" style="stop-color:#E4CD78"/>
			<stop  offset="1" style="stop-color:#E29B47"/>
		</linearGradient>
		<path style="fill:none;stroke:url(#SVGID_38_);stroke-miterlimit:10;" d="M68.988,275.604c-0.871,0.413-3.36-1.181-3.403-3.055
			c-0.02-0.876,0.49-2.012,1.267-2.141c0.597-0.099,1.15,0.43,1.49,0.755c0.81,0.774,0.966,1.706,1.028,2.112
			C69.431,273.668,69.676,275.278,68.988,275.604z"/>
		
			<linearGradient id="SVGID_39_" gradientUnits="userSpaceOnUse" x1="63.3741" y1="327.1648" x2="68.2516" y2="327.1648" gradientTransform="matrix(1 0 0 -1 0 595.2756)">
			<stop  offset="0" style="stop-color:#E4CD78"/>
			<stop  offset="1" style="stop-color:#E29B47"/>
		</linearGradient>
		<path style="fill:none;stroke:url(#SVGID_39_);stroke-miterlimit:10;" d="M67.278,270.682c-0.871,0.413-3.36-1.181-3.403-3.055
			c-0.02-0.876,0.49-2.012,1.267-2.141c0.597-0.099,1.15,0.43,1.49,0.755c0.81,0.774,0.966,1.706,1.028,2.112
			C67.72,268.746,67.966,270.356,67.278,270.682z"/>
	</g>
</g>
<g id="linkerbeen">
	
		<linearGradient id="rechterbeen_2_" gradientUnits="userSpaceOnUse" x1="155.0706" y1="403.9876" x2="222.4506" y2="403.9876" gradientTransform="matrix(1 0 0 -1 0 595.2756)">
		<stop  offset="0" style="stop-color:#8E1C2A"/>
		<stop  offset="1" style="stop-color:#AA2C35"/>
	</linearGradient>
	<path id="rechterbeen_1_" style="fill:url(#rechterbeen_2_);" d="M214.491,212.543l2.18,3.45l-7.16-0.51c0,0-20.71-3.07-24.41-2.43
		c0,0-17.85-3.91-24.45-9.45c-6.6-5.53-5.38-10.49-5.38-10.49l0.11-4.19l-0.31-6.03h3.3c5.9-2.61,8.67-16.31,8.67-16.31
		s13.66,17.13,19.14,19.15c0,0,4.43,2.12,7.51,1.92c3.08-0.19,9.91-0.67,11.35,0.68c0,0,6.73-0.87,9.43-0.1
		c2.69,0.77,7.98,5.48,7.98,5.48S198.771,193.753,214.491,212.543z"/>
	<path style="fill:#653B2D;" d="M252.441,203.493l-6.02,10.28h-1.82c-4.2,2.24-5.39,9.89-5.39,9.89
		c-5.11,11.59-16.06,12.68-16.06,12.68c-7.46-0.51-10.45-3.21-11.2-6.48c-0.11-0.47-0.17-0.95-0.2-1.43
		c1.65-2.76,3.29-5.51,4.94-8.27c2.26-2.97,4.42-4.95,5.91-6.18c4.17-3.42,7.29-4.36,10.59-8.42c1.22-1.5,2.01-2.87,2.46-3.72
		l2.37-0.18l7.03-9.13C256.001,189.613,252.441,203.493,252.441,203.493z"/>
	
		<linearGradient id="SVGID_40_" gradientUnits="userSpaceOnUse" x1="209.1374" y1="384.7926" x2="245.0507" y2="384.7926" gradientTransform="matrix(1 0 0 -1 0 595.2756)">
		<stop  offset="0" style="stop-color:#8E1C2A"/>
		<stop  offset="1" style="stop-color:#AA2C35"/>
	</linearGradient>
	<path style="fill:url(#SVGID_40_);" d="M245.051,192.533l-7.03,9.13l-2.37,0.18c-0.45,0.85-1.24,2.22-2.46,3.72
		c-3.3,4.06-6.42,5-10.59,8.42c-1.49,1.23-3.65,3.21-5.91,6.18c-1.65,2.76-3.29,5.51-4.94,8.27c-0.26-5.73,4.92-12.44,4.92-12.44
		c-0.554-0.909-1.421-2.287-2.567-3.919c-1.714-2.442-2.326-2.995-3.277-4.748c-0.909-1.675-1.624-3.029-1.688-4.923
		c0,0-0.063-1.873,0.692-3.619c1.409-3.26,6.479-5.41,12.62-5.07C229.981,193.323,237.521,192.933,245.051,192.533z"/>
	
		<ellipse transform="matrix(0.7315 -0.6819 0.6819 0.7315 -85.2996 203.9111)" style="fill:#DBDAD9;stroke:#DBDAD9;stroke-width:0.75;stroke-miterlimit:10.0004;" cx="216.245" cy="210.256" rx="1.054" ry="0.649"/>
	
		<ellipse transform="matrix(0.7315 -0.6819 0.6819 0.7315 -83.0875 203.6251)" style="fill:#DBDAD9;stroke:#DBDAD9;stroke-width:0.75;stroke-miterlimit:10.0004;" cx="216.988" cy="207.304" rx="1.054" ry="0.649"/>
	
		<ellipse transform="matrix(0.7315 -0.6819 0.6819 0.7315 -80.9798 203.0729)" style="fill:#DBDAD9;stroke:#DBDAD9;stroke-width:0.75;stroke-miterlimit:10.0004;" cx="217.34" cy="204.352" rx="1.054" ry="0.649"/>
	
		<ellipse transform="matrix(0.7315 -0.6819 0.6819 0.7315 -79.0614 202.4813)" style="fill:#DBDAD9;stroke:#DBDAD9;stroke-width:0.75;stroke-miterlimit:10.0004;" cx="217.548" cy="201.62" rx="1.054" ry="0.649"/>
	
		<ellipse transform="matrix(0.7315 -0.6819 0.6819 0.7315 -78.4639 200.5186)" style="fill:#DBDAD9;stroke:#DBDAD9;stroke-width:0.75;stroke-miterlimit:10.0004;" cx="215.355" cy="199.881" rx="1.054" ry="0.649"/>
	
		<ellipse transform="matrix(0.7315 -0.6819 0.6819 0.7315 -78.6271 198.1444)" style="fill:#DBDAD9;stroke:#DBDAD9;stroke-width:0.75;stroke-miterlimit:10.0004;" cx="212.259" cy="198.901" rx="1.054" ry="0.649"/>
</g>
<g id="rechterbeen">
	<path style="fill:#D79B82;" d="M48.098,73.72l10.009,9.026c2.231-0.584,5.215-1.609,8.426-3.48c3.067-1.787,5.352-3.77,6.935-5.363
		c-1.108-0.836-2.24-1.671-3.398-2.503c-4.235-3.044-8.418-5.774-12.499-8.225C54.414,66.69,51.256,70.205,48.098,73.72z"/>
	
		<linearGradient id="SVGID_41_" gradientUnits="userSpaceOnUse" x1="66.5049" y1="508.7746" x2="139.3634" y2="452.0119" gradientTransform="matrix(1 0 0 -1 0 595.2756)">
		<stop  offset="0" style="stop-color:#AA2C35"/>
		<stop  offset="1" style="stop-color:#8E1C2A"/>
	</linearGradient>
	<path style="fill:url(#SVGID_41_);" d="M148.761,142.193c-14.91-11.95-53.9-10.14-53.9-10.14s-10.47-10.01-10.58-11.45l-0.42-5.47
		l-5.75-4.76c0,0-9.94-16.95-13.72-19.61c-3.79-2.67-7.99-8.83-7.99-8.83s12.89-1.96,13.87-6.72c0.98-4.77-1.96-4.21-1.96-4.21
		l5.18-2.52c0,0,7.44,6.66,5.96,10.88L148.761,142.193z"/>
	
		<linearGradient id="SVGID_42_" gradientUnits="userSpaceOnUse" x1="9.1067" y1="535.0377" x2="59.3747" y2="535.0377" gradientTransform="matrix(1 0 0 -1 0 595.2756)">
		<stop  offset="0" style="stop-color:#8E1C2A"/>
		<stop  offset="0.3741" style="stop-color:#921E2C"/>
		<stop  offset="0.7674" style="stop-color:#9F2631"/>
		<stop  offset="1" style="stop-color:#AA2C35"/>
	</linearGradient>
	<path style="fill:url(#SVGID_42_);" d="M9.107,73.598c0,0,3.701,6.525,9.462-0.305c0,0,5.146-5.128,11.224-2.798
		c0,0,14.487,0.044,17.425,4.074l12.157-11.394c0,0-11.236-18.106-13.481-19.109c-6.261,2.713-14.667,7.198-23.145,14.585
		C16.777,63.855,12.332,69.137,9.107,73.598z"/>
	
		<ellipse transform="matrix(0.9638 -0.2666 0.2666 0.9638 -17.0064 10.5864)" style="fill:#DBDAD9;stroke:#DBDAD9;stroke-width:0.75;stroke-miterlimit:9.9999;" cx="30.487" cy="67.928" rx="0.649" ry="1.054"/>
	<path style="fill:#673123;" d="M5.959,72.656c0,0,8.786-14.074,17.486-17.998l0.938,0.938l7.506-4.862l-1.365-1.962l13.136-9.98
		l3.071,4.436l-1.877,1.877c0,0-6.995,6.824-21.495,13.818c0,0-11.089,9.639-14.586,15.183L5.959,72.656z"/>
	
		<ellipse style="fill:#DBDAD9;stroke:#DBDAD9;stroke-width:0.75;stroke-miterlimit:10;" cx="33.994" cy="67.453" rx="0.649" ry="1.054"/>
	
		<ellipse style="fill:#DBDAD9;stroke:#DBDAD9;stroke-width:0.75;stroke-miterlimit:10;" cx="37.839" cy="67.453" rx="0.649" ry="1.054"/>
	
		<ellipse style="fill:#DBDAD9;stroke:#DBDAD9;stroke-width:0.75;stroke-miterlimit:10;" cx="41.571" cy="67.697" rx="0.649" ry="1.054"/>
	
		<ellipse transform="matrix(0.3087 -0.9512 0.9512 0.3087 -34.1923 90.474)" style="fill:#DBDAD9;stroke:#DBDAD9;stroke-width:0.75;stroke-miterlimit:9.9994;" cx="45.147" cy="68.76" rx="1.054" ry="0.649"/>
	
		<ellipse transform="matrix(0.4598 -0.888 0.888 0.4598 -36.9922 81.0185)" style="fill:#DBDAD9;stroke:#DBDAD9;stroke-width:0.75;stroke-miterlimit:9.9998;" cx="48.097" cy="70.915" rx="1.054" ry="0.649"/>
</g>
<g id="hoofd">
	<g id="haar">
		<path id="haar_1_" style="fill:#E8E4E1;" d="M67.375,161.219c0,0-32.804-5.624-25.306,35.803
			c-2.508,21.044-2.718,43.442,0.537,66.816c0.221,1.583,0.455,3.155,0.702,4.716c0.568,1.242,1.345,2.914,2.299,4.878
			c3.247,6.689,4.084,7.598,5.085,7.756c1.489,0.234,2.823-1.277,4.808-3.632c5.712-6.778,8.568-10.167,9.643-12.068
			c3.997-7.07,5.429-13.436,5.982-15.979c4.213-19.399,4.822-32.241,8.42-51.233c2.887-15.242,5.402-27.774,5.402-27.774
			S74.153,160.37,67.375,161.219z"/>
	</g>
	<g id="gezicht">
		<path id="gezicht_1_" style="fill:#D79B82;" d="M84.946,177.799c0,0,3.241,5.347,2.838,8.575
			c-0.404,3.228-1.519,5.549-1.519,5.549s1.116,8.172-3.626,7.566c-1.096-0.064-2.191-0.129-3.287-0.193
			c1.439-7.748,2.877-15.495,4.316-23.243C84.094,176.635,84.52,177.217,84.946,177.799z"/>
		<path style="fill:none;stroke:#C6856D;stroke-width:0.5;stroke-linecap:round;stroke-linejoin:round;stroke-miterlimit:10;" d="
			M82.25,196.704c0,0,2.953,0.585,1.769-2.664"/>
	</g>
	<g id="haartjes">
		<g>
			<g>
				<path style="fill:#E2D3C5;" d="M60.273,211.834c0.473,12.01,0.904,24.192-2.03,35.952c-0.057,0.228,0.665,0.119,0.721-0.104
					c2.941-11.788,2.508-24.004,2.034-36.042C60.99,211.447,60.263,211.581,60.273,211.834L60.273,211.834z"/>
			</g>
		</g>
		<g>
			<g>
				<path style="fill:#E2D3C5;" d="M66.124,193.306c-0.841,9.9-2.072,19.872-1.794,29.822c0.007,0.236,0.732,0.092,0.724-0.194
					c-0.277-9.913,0.957-19.853,1.795-29.716C66.875,192.92,66.145,193.055,66.124,193.306L66.124,193.306z"/>
			</g>
		</g>
		<g>
			<g>
				<path style="fill:#E2D3C5;" d="M71.738,202.721c-0.567,7.298-1.134,14.596-1.701,21.894c-0.023,0.297,0.706,0.159,0.725-0.089
					c0.567-7.298,1.134-14.596,1.701-21.894C72.486,202.335,71.758,202.473,71.738,202.721L71.738,202.721z"/>
			</g>
		</g>
		<g>
			<g>
				<path style="fill:#E2D3C5;" d="M55.65,198.141c1.095,3.14,1.756,6.414,1.736,9.748c-0.016,2.592-0.552,5.12-1.123,7.637
					c-0.739,3.252-1.663,6.471-2.326,9.739c-0.597,2.946-0.775,5.972-0.656,8.972c0.006,0.153,0.733,0.03,0.724-0.194
					c-0.126-3.192,0.094-6.398,0.781-9.52c0.727-3.298,1.628-6.557,2.36-9.856c0.51-2.3,0.949-4.609,0.964-6.972
					c0.02-3.334-0.641-6.608-1.736-9.748C56.308,197.755,55.59,197.968,55.65,198.141L55.65,198.141z"/>
			</g>
		</g>
		<g>
			<g>
				<path style="fill:#E2D3C5;" d="M55.185,255.826c-0.516,3.734-0.124,7.496-0.074,11.245c0.001,0.103,0.727,0.002,0.724-0.194
					c-0.049-3.749-0.441-7.511,0.074-11.245C55.919,255.563,55.214,255.614,55.185,255.826L55.185,255.826z"/>
			</g>
		</g>
		<g>
			<g>
				<path style="fill:#E2D3C5;" d="M49.312,242.571c-0.802,9.945,1.606,20.526-2.839,29.895c-0.179,0.378,0.552,0.393,0.695,0.092
					c4.471-9.423,2.073-20.035,2.88-30.038C50.078,242.138,49.34,242.232,49.312,242.571L49.312,242.571z"/>
			</g>
		</g>
		<g>
			<g>
				<path style="fill:#E2D3C5;" d="M46.463,192.265c-0.849,5.779-0.575,11.472,0.415,17.209c1.018,5.899,1.115,11.775,0.266,17.708
					c-0.054,0.376,0.687,0.287,0.735-0.051c0.82-5.729,0.799-11.47-0.161-17.177c-0.999-5.937-1.4-11.753-0.52-17.74
					C47.253,191.839,46.512,191.928,46.463,192.265L46.463,192.265z"/>
			</g>
		</g>
	</g>
</g>
</svg>
